<svg width="706" height="170" viewBox="0 0 706 170" fill="none" xmlns="http://www.w3.org/2000/svg">
<g clip-path="url(#clip0_395_14014)">
<path d="M187.135 83.6584H196.921C199.333 83.7926 201.657 82.8531 203.4 81.0637C205.098 79.2742 205.991 76.8137 205.857 74.3084C205.857 68.761 202.283 65.0926 196.921 65.0926H187.135V83.6584ZM180.7 116.316C178.958 116.361 177.304 115.645 176.053 114.348C174.847 113.051 174.221 111.261 174.266 109.427V60.5742C174.221 58.6952 174.891 56.9505 176.098 55.6531C177.349 54.311 179.047 53.64 180.79 53.6847H196.831C210.102 53.6847 218.949 61.961 218.949 74.2637C218.949 86.6558 209.834 95.0216 196.831 95.0216H187.135V109.427C187.179 111.261 186.554 113.006 185.347 114.348C184.096 115.69 182.443 116.361 180.7 116.316V116.316Z" fill="white"/>
<path d="M250.362 83.5248H260.64C261.884 83.6021 263.131 83.4152 264.299 82.9762C265.466 82.5371 266.528 81.856 267.414 80.9773C268.3 80.0986 268.991 79.0423 269.44 77.8777C269.89 76.7131 270.089 75.4664 270.023 74.2195C270.023 68.7169 266.225 65.0485 260.64 65.0485H250.362V83.5248ZM279.72 116.093C277.173 116.138 274.804 114.841 273.553 112.648L261.712 94.8432H250.318V109.248C250.318 111.04 249.607 112.758 248.342 114.025C247.076 115.292 245.36 116.004 243.57 116.004C241.781 116.004 240.065 115.292 238.8 114.025C237.534 112.758 236.823 111.04 236.823 109.248V60.53C236.792 59.6188 236.949 58.711 237.284 57.8633C237.619 57.0156 238.126 56.2463 238.772 55.6037C239.418 54.9611 240.189 54.4591 241.038 54.1289C241.887 53.7988 242.795 53.6478 243.705 53.6853H260.55C274.492 53.6853 283.786 61.9169 283.786 74.13C283.856 77.2751 283.165 80.3905 281.772 83.2104C280.379 86.0304 278.326 88.4712 275.787 90.3248L274.447 91.2642L283.92 104.641C285.171 106.206 285.886 108.13 285.975 110.143C285.895 111.749 285.2 113.263 284.036 114.371C282.871 115.478 281.326 116.095 279.72 116.093V116.093Z" fill="white"/>
<path d="M328.422 65.6298C325.842 65.5031 323.263 65.9165 320.851 66.8433C318.439 67.7702 316.247 69.1903 314.414 71.013C312.581 72.8357 311.147 75.021 310.205 77.4294C309.262 79.8378 308.832 82.4165 308.94 85.0008C308.811 87.5905 309.227 90.1784 310.162 92.5964C311.097 95.0144 312.53 97.2082 314.367 99.0353C316.205 100.862 318.406 102.282 320.828 103.201C323.249 104.121 325.837 104.52 328.422 104.372C340.04 104.372 347.904 96.4087 347.904 85.0008C347.999 82.42 347.559 79.8474 346.612 77.4452C345.665 75.043 344.231 72.8633 342.401 71.0434C340.571 69.2236 338.383 67.803 335.978 66.8713C333.572 65.9395 330.999 65.5168 328.422 65.6298V65.6298ZM328.333 116.317C309.566 116.317 294.91 102.582 294.91 85.0008C294.91 67.4193 309.611 53.6851 328.333 53.6851C347.055 53.6851 361.935 67.4193 361.935 85.0008C361.935 102.582 347.189 116.317 328.333 116.317Z" fill="white"/>
<path d="M397.683 116.317C396.788 116.329 395.899 116.16 395.072 115.819C394.244 115.477 393.494 114.971 392.867 114.331C392.241 113.691 391.75 112.931 391.426 112.095C391.101 111.26 390.95 110.368 390.98 109.472V65.5851H376.771C373.509 65.5851 370.873 62.9009 370.873 59.6351C370.873 56.3245 373.509 53.6851 376.771 53.6851H418.595C421.856 53.6851 424.493 56.3693 424.493 59.6351C424.493 62.9009 421.856 65.5851 418.595 65.5851H404.43V109.427C404.475 111.261 403.804 113.051 402.509 114.348C401.213 115.69 399.47 116.361 397.638 116.317H397.683Z" fill="white"/>
<path d="M462.476 65.6298C459.895 65.5031 457.317 65.9165 454.905 66.8433C452.493 67.7702 450.3 69.1903 448.467 71.013C446.634 72.8357 445.2 75.021 444.258 77.4294C443.315 79.8378 442.885 82.4165 442.994 85.0008C442.864 87.5905 443.28 90.1784 444.215 92.5964C445.15 95.0144 446.583 97.2082 448.421 99.0353C450.258 100.862 452.459 102.282 454.881 103.201C457.302 104.121 459.89 104.52 462.476 104.372C474.093 104.372 481.958 96.4087 481.958 85.0008C482.053 82.42 481.613 79.8474 480.665 77.4452C479.718 75.043 478.284 72.8633 476.454 71.0434C474.624 69.2236 472.437 67.803 470.031 66.8713C467.625 65.9395 465.053 65.5168 462.476 65.6298V65.6298ZM462.386 116.317C443.619 116.317 428.963 102.582 428.963 85.0008C428.963 67.4193 443.664 53.6851 462.386 53.6851C481.109 53.6851 495.988 67.4193 495.988 85.0008C495.988 102.582 481.198 116.317 462.386 116.317Z" fill="white"/>
<path d="M515.961 116.318C515.081 116.349 514.204 116.194 513.388 115.863C512.571 115.531 511.834 115.031 511.225 114.394C509.974 113.052 509.303 111.263 509.437 109.473V60.5312C509.348 58.6523 510.018 56.9075 511.269 55.6102C512.52 54.2681 514.263 53.597 516.051 53.6417H543.844C547.016 53.6417 549.608 56.3259 549.608 59.5917C549.626 60.3629 549.49 61.13 549.209 61.8482C548.928 62.5664 548.507 63.2215 547.97 63.7752C547.434 64.329 546.793 64.7703 546.084 65.0736C545.376 65.3769 544.614 65.536 543.844 65.5417H522.53V81.1996H538.839C542.056 81.1996 544.648 83.8839 544.648 87.1944C544.66 87.9656 544.518 88.7315 544.232 89.4475C543.945 90.1634 543.519 90.8152 542.979 91.3647C542.438 91.9143 541.794 92.3507 541.083 92.6485C540.372 92.9464 539.61 93.0997 538.839 93.0996H522.53V109.429C522.619 111.218 521.949 113.008 520.698 114.35C519.446 115.647 517.748 116.318 515.961 116.273V116.318Z" fill="white"/>
<path d="M574.184 116.316C572.397 116.361 570.609 115.69 569.358 114.437C568.724 113.809 568.228 113.054 567.905 112.222C567.582 111.389 567.437 110.498 567.481 109.606V60.6187C567.392 58.2029 568.643 55.8766 570.743 54.624C571.785 54.0058 572.973 53.6797 574.184 53.6797C575.395 53.6797 576.583 54.0058 577.625 54.624C579.725 55.8766 580.976 58.2029 580.886 60.6187V109.606C580.976 111.395 580.306 113.185 579.054 114.437C577.759 115.735 576.016 116.406 574.184 116.361V116.316Z" fill="white"/>
<path d="M612.299 83.5248H622.576C623.819 83.595 625.063 83.4032 626.227 82.9616C627.392 82.5201 628.45 81.8386 629.335 80.9614C630.219 80.0843 630.91 79.0309 631.362 77.8695C631.815 76.7081 632.018 75.4646 631.96 74.2195C631.96 68.7169 628.206 65.0485 622.576 65.0485H612.299V83.5248ZM641.701 116.093C639.198 116.138 636.786 114.841 635.579 112.648L623.693 94.8432H612.299V109.248C612.384 110.486 612.125 111.724 611.55 112.823C610.976 113.923 610.107 114.841 609.042 115.476C607.978 116.111 606.758 116.438 605.518 116.421C604.279 116.403 603.068 116.042 602.022 115.377C600.971 114.751 600.112 113.849 599.537 112.768C598.962 111.688 598.694 110.471 598.76 109.248V60.53C598.728 59.6188 598.885 58.711 599.22 57.8633C599.556 57.0156 600.062 56.2463 600.708 55.6037C601.354 54.9611 602.126 54.4591 602.975 54.1289C603.823 53.7988 604.731 53.6478 605.641 53.6853H622.487C636.428 53.6853 645.722 61.9169 645.722 74.13C645.78 77.2715 645.079 80.3805 643.678 83.1923C642.278 86.0042 640.22 88.4357 637.679 90.28L636.383 91.2642L645.856 104.641C647.107 106.206 647.822 108.13 647.912 110.143C647.832 111.742 647.144 113.249 645.989 114.355C644.834 115.462 643.299 116.084 641.701 116.093V116.093Z" fill="white"/>
<path d="M668.376 116.316C667.445 116.347 666.517 116.186 665.649 115.845C664.782 115.503 663.993 114.988 663.332 114.33C662.67 113.672 662.151 112.886 661.804 112.02C661.457 111.153 661.291 110.225 661.316 109.292V60.708C661.271 59.7698 661.423 58.8326 661.763 57.957C662.102 57.0813 662.621 56.2868 663.287 55.6247C663.952 54.9627 664.749 54.4479 665.626 54.1136C666.503 53.7794 667.44 53.6331 668.376 53.6843H698.716C702.068 53.6843 704.793 56.3685 704.793 59.7238C704.793 63.079 702.068 65.808 698.716 65.808H675.124V78.3343H690.763C693.846 78.3343 696.304 80.7501 696.304 83.7922C696.304 86.8343 693.846 89.2948 690.763 89.2948H675.124V104.192H699.923C703.274 104.192 706 106.876 706 110.232C706 113.587 703.274 116.271 699.923 116.271L668.376 116.316Z" fill="white"/>
<path d="M10.9917 167.81C8.58358 166.644 6.43196 165.009 4.66284 163.001C2.89373 160.992 1.54269 158.65 0.688805 156.112C-0.165078 153.574 -0.50463 150.892 -0.309955 148.221C-0.115279 145.55 0.609693 142.944 1.82253 140.558C3.03537 138.171 4.7117 136.05 6.75333 134.32C8.79495 132.59 11.1609 131.285 13.7125 130.481C16.2641 129.678 18.9502 129.392 21.6135 129.641C24.2767 129.89 26.8636 130.669 29.2226 131.931C33.8636 134.415 37.3473 138.621 38.9259 143.647C40.5045 148.673 40.0522 154.118 37.6661 158.814C35.28 163.51 31.1503 167.082 26.1633 168.764C21.1762 170.446 15.7294 170.103 10.9917 167.81V167.81Z" fill="#F54703"/>
<path d="M7.05863 32.3462C0.814907 43.9714 -1.3587 57.3558 0.884818 70.3626C3.12833 83.3695 9.65959 95.2488 19.436 104.104C21.6701 106.162 25.1555 106.117 27.3003 104.059C31.5643 100.025 34.5082 94.7932 35.7445 89.0516C36.9808 83.31 36.4515 77.3282 34.2262 71.8936C31.789 66.2693 31.1897 60.0177 32.5138 54.032C33.8379 48.0462 37.0177 42.6326 41.599 38.5646C46.2799 34.3971 52.0926 31.7169 58.2985 30.8646C64.5044 30.0123 70.8232 31.0263 76.4522 33.7778C82.018 36.4188 86.6182 40.7382 89.6074 46.1299C92.5965 51.5216 93.8245 57.715 93.1191 63.841C92.2957 69.9833 89.602 75.7224 85.4044 80.2772C81.2068 84.832 75.7093 87.9812 69.6603 89.2962C63.894 90.6629 58.6575 93.7 54.6047 98.0281C50.5519 102.356 47.8623 107.784 46.8717 113.633C46.4248 116.541 48.4356 119.27 51.4741 119.807C82.0823 125.175 112.11 107.907 121.895 79.3646C131.726 50.7331 118.321 19.5515 90.4828 6.13044C60.4555 -8.27482 22.5191 3.66991 7.05863 32.3462V32.3462Z" fill="url(#paint0_linear_395_14014)"/>
</g>
<defs>
<linearGradient id="paint0_linear_395_14014" x1="34.4496" y1="114.215" x2="90.7222" y2="6.49863" gradientUnits="userSpaceOnUse">
<stop offset="0.01" stop-color="#F54703"/>
<stop offset="1" stop-color="#FAC902"/>
</linearGradient>
<clipPath id="clip0_395_14014">
<rect width="706" height="170" fill="white"/>
</clipPath>
</defs>
</svg>
